PathFileType	4	(X/Y/Z)	C:/Users/beibeiliu/ov580/test_trc\sequence.15_training_dense_left.trc
DataRate	CameraRate	NumFrames	NumMarkers	Units	OrigDataRate	OrigDataStartFrame	OrigNumFrames
120	120	13	19	mm	120	88	348
Frame#	Time	ThumbCMC			ThumbMCP			ThumbIP			ThumbTip			IndexMCP			IndexPIP			IndexTip			MiddleMCP			MiddlePIP			MiddleTip			RingMCP			RingPIP			RingTip			PinkyMCP			PinkyPIP			PinkyTip			BackHand1			BackHand2			BackHand3	
		X0	Y0	Z0	X1	Y1	Z1	X2	Y2	Z2	X3	Y3	Z3	X4	Y4	Z4	X5	Y5	Z5	X6	Y6	Z6	X7	Y7	Z7	X8	Y8	Z8	X9	Y9	Z9	X10	Y10	Z10	X11	Y11	Z11	X12	Y12	Z12	X13	Y13	Z13	X14	Y14	Z14	X15	Y15	Z15	X16	Y16	Z16	X17	Y17	Z17	X18	Y18	Z18	
87	0.725	-226.509	-5.66096	-10.8171	-194.447	8.88059	-12.0126	-172.916	-1.34199	-17.0663	-151.531	-16.1722	-16.5572	-171.865	-5.41182	-53.8868	-150.255	1.1604	-54.1732	-126.385	10.0062	-48.9302	-159.74	-17.5093	-42.92	-141.886	-6.83635	-22.1787	-153.479	-5.01962	6.05704	-157.979	-37.2501	-30.1507	-152.251	-21.6369	-7.59548	-177.685	-20.2987	6.24213	-166.379	-58.4002	-32.3454	-145.412	-58.6983	-34.3852	-128.745	-58.2659	-37.2571	-207.475	-55.1765	-34.4604	-232.094	-58.1664	-21.8006	-228.262	-30.8578	-35.3361	
88	0.733333	-226.854	-8.6999	-10.3536	-199.533	6.49417	-12.3485	-171.725	2.09954	-20.2834	-157.309	-20.825	-18.4778	-177.502	-5.67381	-52.3714	-151.353	6.69467	-54.7428	-131.567	11.6704	-49.9498	-158.783	-18.5188	-40.726	-144.394	-7.47029	-17.4766	-157.717	-4.60153	7.33763	-159.74	-37.2185	-30.1668	-152.874	-21.5893	-8.92974	-176.083	-22.4466	6.73326	-164.89	-57.5462	-33.6467	-148.015	-54.8395	-35.3537	-129.909	-57.1767	-38.8085	-208.506	-54.9091	-33.4222	-228.742	-61.9801	-21.6104	-225.362	-31.5451	-34.5236	
89	0.741667	-226.814	-12.5617	-9.14505	-201.706	5.08386	-12.5638	-176.482	0.0420657	-19.4263	-158.764	-14.5961	-17.839	-178.297	-4.18867	-52.3252	-154.115	8.11885	-54.2788	-133.175	20.7379	-49.9791	-160.072	-15.978	-40.7268	-147.272	-2.66887	-17.3839	-161.895	-6.6498	9.36696	-158.785	-31.5853	-30.9717	-152.894	-20.5021	-6.28749	-178.333	-21.5295	5.04736	-163.648	-59.4969	-32.0501	-144.954	-52.8749	-36.2479	-126.27	-48.9525	-42.9191	-204.068	-58.3046	-32.3509	-226.005	-66.0294	-20.4238	-225.96	-34.6469	-34.0547	
90	0.75	-229.726	-11.52	-6.9369	-202.233	5.07041	-9.33724	-173.869	6.80143	-15.3863	-157.964	-14.1222	-14.6221	-180.679	-3.84159	-52.9759	-159.89	9.40792	-56.0186	-135.739	23.5802	-49.0148	-165.512	-13.9569	-42.421	-147.387	-0.93909	-21.8027	-165.377	-6.5342	7.54708	-160.662	-28.9733	-32.3653	-154.061	-16.3534	-6.40905	-181.935	-24.8859	5.88572	-157.117	-55.5132	-33.7583	-145.506	-47.7461	-37.8575	-128.54	-44.3596	-43.623	-203.795	-52.9422	-32.4593	-220.389	-65.3531	-20.3062	-227.589	-34.9381	-33.478	
91	0.758333	-228.084	-10.4746	-7.82633	-201.498	10.6187	-1.94237	-176.095	13.905	-2.75781	-155.622	-1.75361	-2.73873	-179.604	4.30358	-55.3973	-160.02	14.5027	-56.0375	-140.817	29.5535	-49.2605	-167.343	-8.68181	-46.4809	-150.452	5.80562	-21.4472	-170.538	-5.028	0.0528698	-154.873	-21.4665	-31.5123	-153.053	-13.2336	-7.23369	-177.732	-20.8664	5.25094	-159.986	-49.9474	-33.1409	-140.528	-44.0143	-37.1982	-122.891	-40.5119	-45.0573	-200.195	-51.9687	-34.6163	-218.372	-63.3124	-22.9127	-222.181	-35.4304	-33.4729	
92	0.766667	-227.066	-11.7796	-7.18535	-203.192	8.47801	-2.06149	-175.717	16.4975	-5.38012	-156.247	0.498269	-4.41952	-181.617	3.52569	-53.3605	-159.998	20.6216	-56.3556	-144.127	33.2769	-48.5792	-162.549	-6.39094	-45.8537	-149.61	9.23891	-23.1769	-173.232	1.57637	-0.620461	-153.364	-18.4161	-31.2847	-153.232	-5.66894	-6.21092	-175.533	-11.3031	5.35869	-153.445	-44.8757	-33.918	-138.349	-35.8826	-38.5526	-120.46	-27.4732	-46.4054	-193.575	-52.4024	-32.4295	-216.321	-63.2673	-19.5423	-219.454	-39.5896	-30.4882	
93	0.775	-225.328	-12.2843	-8.10945	-202.747	12.8932	-12.935	-180.581	14.9423	-16.3891	-155.95	4.50792	-16.0219	-184.227	10.9299	-54.5046	-164.139	27.9829	-56.7372	-145.742	47.3044	-47.397	-161.413	7.63281	-42.0865	-151.079	21.8082	-20.7898	-167.137	11.5331	6.42271	-149.715	-7.45911	-30.8419	-149.467	5.37991	-10.0101	-173.753	-0.751531	6.37915	-151.069	-32.6451	-35.5964	-135.197	-23.3061	-40.7394	-117.46	-13.5894	-47.1752	-190.966	-44.3948	-34.3063	-208.413	-56.8347	-19.9151	-216.551	-35.4179	-32.4155	
94	0.783333	-221.568	-11.3462	-8.94754	-203.672	20.6889	-14.0941	-176.066	21.6624	-22.2766	-158.248	6.6846	-18.6593	-181.674	22.1793	-55.491	-162.998	36.5002	-56.479	-150.247	56.0657	-48.766	-162.462	19.076	-41.3567	-155.286	34.4067	-16.7551	-169.288	20.2925	10.2912	-149.56	3.68425	-33.4217	-149.128	19.0961	-13.3672	-168.763	8.95381	8.87367	-146.33	-20.6173	-36.1825	-131.155	-14.8412	-38.685	-115.492	-2.44314	-49.7743	-185.391	-36.0744	-32.4901	-200.016	-53.5229	-21.7177	-209.26	-31.0998	-32.4681	
95	0.791667	-218.453	-5.63077	-9.48198	-204.232	25.7911	-12.3728	-177.259	26.1913	-22.1828	-154.815	16.4673	-17.289	-180.141	30.7343	-56.1446	-163.314	48.3383	-56.5325	-149.137	68.9848	-48.0118	-159.287	26.3918	-40.2996	-154.605	43.2734	-19.388	-168.079	28.5758	9.93027	-147.114	13.8703	-32.1862	-147.183	27.6456	-12.3384	-164.9	19.2252	7.74811	-141.584	-13.4357	-34.4922	-125.275	2.36421	-41.6901	-116.063	14.1581	-50.6041	-176.899	-28.9149	-36.5588	-194.056	-45.223	-20.7539	-209.138	-22.1111	-35.1719	
96	0.8	-215.614	1.00758	-9.74143	-201.258	30.1363	-11.1992	-173.659	39.5063	-16.8449	-153.483	24.4549	-14.4316	-183.31	37.7344	-53.9212	-170.944	60.7294	-56.6041	-155.085	81.038	-49.4346	-161.826	32.8361	-40.5804	-154.157	50.9805	-16.1869	-167.295	38.5107	8.6532	-150.235	26.385	-32.5197	-151.439	38.3279	-7.59878	-166.921	23.3392	8.72499	-138.443	2.54633	-37.6556	-126.387	15.9825	-41.2219	-113.42	25.4849	-47.4506	-172.642	-20.7139	-36.2819	-185.581	-40.1994	-25.4153	-206.194	-16.781	-32.0863	
97	0.808333	-211.296	6.8	-7.40639	-198.194	37.3277	2.58639	-176.445	48.4729	1.67994	-147.546	45.0034	0.169207	-186.859	44.4183	-52.99	-173.258	71.2663	-54.3055	-161.907	91.9946	-48.6298	-160.124	41.6211	-41.6763	-157.465	59.5546	-15.9258	-173.082	41.092	3.46955	-149.638	35.1323	-30.9983	-150.807	42.8401	-4.90132	-168.48	24.7855	7.61432	-136.416	12.345	-37.1065	-125.379	28.2764	-41.116	-112.365	38.6391	-47.3055	-172.786	-11.4823	-38.3725	-182.198	-34.6731	-22.2356	-198.915	-9.43764	-34.879	
98	0.816667	-212.182	13.2862	-5.57914	-198.378	44.0183	8.90873	-174.357	60.0051	6.67966	-150.816	57.6756	5.27997	-184.751	51.8023	-50.0173	-175.089	78.6068	-50.3346	-166.47	98.1022	-46.6658	-161.745	51.427	-38.9838	-159.121	67.2219	-15.6674	-174.708	41.1084	3.39002	-148.029	42.7954	-28.4324	-150.009	49.6549	-4.09883	-168.25	32.054	6.94305	-135.359	22.0798	-35.2039	-125.03	38.6013	-38.0609	-110.801	50.7663	-44.3807	-168.349	-3.42241	-37.3685	-177.756	-27.9607	-22.9362	-200.15	-5.16883	-31.3456	
99	0.825	-206.155	17.6104	-6.45861	-195.848	47.6721	8.07794	-178.938	64.3206	11.1623	-153.736	67.8094	10.9091	-184.37	60.5567	-47.9951	-178.443	81.4988	-48.3026	-169.903	105.417	-42.7159	-162.191	57.2567	-36.9658	-161.361	71.2547	-9.18725	-175.729	44.6883	4.94488	-146.865	50.8037	-25.3515	-154.079	56.8563	-1.89244	-170.362	36.4636	7.27723	-136.852	28.7262	-34.2548	-125.461	44.9917	-35.4454	-115.333	60.0846	-38.7886	-164.854	0.19626	-37.1621	-175.085	-19.7881	-25.2745	-195.295	-2.96081	-33.1398	
